<svg xmlns="http://www.w3.org/2000/svg" style="display: none;">
  <defs>
    <!-- Code Engine -->
    <symbol id="icon-code-engine" viewBox="0 0 64 64">
      <circle cx="32" cy="32" r="30" fill="#667eea" opacity="0.1"/>
      <path d="M22 24l-8 8 8 8m20-16l8 8-8 8M28 40l8-16" stroke="#667eea" stroke-width="3" stroke-linecap="round" stroke-linejoin="round" fill="none"/>
    </symbol>

    <!-- Document Engine -->
    <symbol id="icon-doc-engine" viewBox="0 0 64 64">
      <circle cx="32" cy="32" r="30" fill="#1890ff" opacity="0.1"/>
      <path d="M20 16h18l8 8v24a2 2 0 01-2 2H20a2 2 0 01-2-2V18a2 2 0 012-2z" fill="none" stroke="#1890ff" stroke-width="2"/>
      <path d="M38 16v8h8M24 32h16M24 38h12" stroke="#1890ff" stroke-width="2" stroke-linecap="round"/>
    </symbol>

    <!-- Excel Engine -->
    <symbol id="icon-excel-engine" viewBox="0 0 64 64">
      <circle cx="32" cy="32" r="30" fill="#52c41a" opacity="0.1"/>
      <rect x="18" y="20" width="28" height="24" fill="none" stroke="#52c41a" stroke-width="2" rx="2"/>
      <line x1="18" y1="28" x2="46" y2="28" stroke="#52c41a" stroke-width="2"/>
      <line x1="18" y1="36" x2="46" y2="36" stroke="#52c41a" stroke-width="2"/>
      <line x1="28" y1="20" x2="28" y2="44" stroke="#52c41a" stroke-width="2"/>
      <line x1="36" y1="20" x2="36" y2="44" stroke="#52c41a" stroke-width="2"/>
    </symbol>

    <!-- PPT Engine -->
    <symbol id="icon-ppt-engine" viewBox="0 0 64 64">
      <circle cx="32" cy="32" r="30" fill="#fa8c16" opacity="0.1"/>
      <rect x="16" y="18" width="32" height="28" fill="none" stroke="#fa8c16" stroke-width="2" rx="2"/>
      <rect x="22" y="24" width="20" height="12" fill="#fa8c16" opacity="0.3" rx="1"/>
      <line x1="22" y1="40" x2="42" y2="40" stroke="#fa8c16" stroke-width="2"/>
    </symbol>

    <!-- PDF Engine -->
    <symbol id="icon-pdf-engine" viewBox="0 0 64 64">
      <circle cx="32" cy="32" r="30" fill="#f5222d" opacity="0.1"/>
      <path d="M20 16h18l8 8v24a2 2 0 01-2 2H20a2 2 0 01-2-2V18a2 2 0 012-2z" fill="none" stroke="#f5222d" stroke-width="2"/>
      <path d="M38 16v8h8" stroke="#f5222d" stroke-width="2" fill="none"/>
      <text x="32" y="38" font-family="Arial" font-size="12" font-weight="bold" text-anchor="middle" fill="#f5222d">PDF</text>
    </symbol>

    <!-- Image Engine -->
    <symbol id="icon-image-engine" viewBox="0 0 64 64">
      <circle cx="32" cy="32" r="30" fill="#eb2f96" opacity="0.1"/>
      <rect x="16" y="18" width="32" height="28" fill="none" stroke="#eb2f96" stroke-width="2" rx="2"/>
      <circle cx="26" cy="28" r="3" fill="#eb2f96"/>
      <path d="M16 40l8-8 6 6 8-8 10 10v6H16z" fill="#eb2f96" opacity="0.3"/>
    </symbol>

    <!-- Video Engine -->
    <symbol id="icon-video-engine" viewBox="0 0 64 64">
      <circle cx="32" cy="32" r="30" fill="#722ed1" opacity="0.1"/>
      <rect x="14" y="20" width="28" height="24" fill="none" stroke="#722ed1" stroke-width="2" rx="2"/>
      <path d="M42 26l8-4v20l-8-4z" fill="#722ed1" opacity="0.5"/>
      <polygon points="28,26 28,38 36,32" fill="#722ed1"/>
    </symbol>

    <!-- Web Engine -->
    <symbol id="icon-web-engine" viewBox="0 0 64 64">
      <circle cx="32" cy="32" r="30" fill="#13c2c2" opacity="0.1"/>
      <circle cx="32" cy="32" r="14" fill="none" stroke="#13c2c2" stroke-width="2"/>
      <ellipse cx="32" cy="32" rx="6" ry="14" fill="none" stroke="#13c2c2" stroke-width="2"/>
      <line x1="18" y1="32" x2="46" y2="32" stroke="#13c2c2" stroke-width="2"/>
      <path d="M32 18v0M32 46v0" stroke="#13c2c2" stroke-width="2" stroke-linecap="round"/>
    </symbol>

    <!-- Data Engine -->
    <symbol id="icon-data-engine" viewBox="0 0 64 64">
      <circle cx="32" cy="32" r="30" fill="#2f54eb" opacity="0.1"/>
      <ellipse cx="32" cy="24" rx="12" ry="4" fill="none" stroke="#2f54eb" stroke-width="2"/>
      <path d="M20 24v16c0 2.2 5.4 4 12 4s12-1.8 12-4V24" fill="none" stroke="#2f54eb" stroke-width="2"/>
      <ellipse cx="32" cy="32" rx="12" ry="4" fill="none" stroke="#2f54eb" stroke-width="2"/>
    </symbol>

    <!-- Audio Engine -->
    <symbol id="icon-audio-engine" viewBox="0 0 64 64">
      <circle cx="32" cy="32" r="30" fill="#faad14" opacity="0.1"/>
      <path d="M24 26v12l-6-4v-4zM40 26v12" stroke="#faad14" stroke-width="2.5" stroke-linecap="round"/>
      <path d="M44 24v16M48 22v20" stroke="#faad14" stroke-width="2" stroke-linecap="round"/>
    </symbol>

    <!-- Email Engine -->
    <symbol id="icon-email-engine" viewBox="0 0 64 64">
      <circle cx="32" cy="32" r="30" fill="#1890ff" opacity="0.1"/>
      <rect x="14" y="22" width="36" height="20" fill="none" stroke="#1890ff" stroke-width="2" rx="2"/>
      <path d="M14 22l18 12 18-12" fill="none" stroke="#1890ff" stroke-width="2" stroke-linejoin="round"/>
    </symbol>

    <!-- Database Engine -->
    <symbol id="icon-database-engine" viewBox="0 0 64 64">
      <circle cx="32" cy="32" r="30" fill="#52c41a" opacity="0.1"/>
      <ellipse cx="32" cy="22" rx="14" ry="5" fill="none" stroke="#52c41a" stroke-width="2"/>
      <path d="M18 22v20c0 2.8 6.3 5 14 5s14-2.2 14-5V22" fill="none" stroke="#52c41a" stroke-width="2"/>
      <ellipse cx="32" cy="32" rx="14" ry="5" fill="none" stroke="#52c41a" stroke-width="2"/>
    </symbol>

    <!-- API Engine -->
    <symbol id="icon-api-engine" viewBox="0 0 64 64">
      <circle cx="32" cy="32" r="30" fill="#13c2c2" opacity="0.1"/>
      <circle cx="22" cy="32" r="4" fill="#13c2c2"/>
      <circle cx="42" cy="32" r="4" fill="#13c2c2"/>
      <circle cx="32" cy="22" r="4" fill="#13c2c2"/>
      <circle cx="32" cy="42" r="4" fill="#13c2c2"/>
      <line x1="26" y1="32" x2="38" y2="32" stroke="#13c2c2" stroke-width="2"/>
      <line x1="32" y1="26" x2="32" y2="38" stroke="#13c2c2" stroke-width="2"/>
    </symbol>

    <!-- AI Engine -->
    <symbol id="icon-ai-engine" viewBox="0 0 64 64">
      <circle cx="32" cy="32" r="30" fill="#722ed1" opacity="0.1"/>
      <path d="M32 18l6 6h-4v8h-4v-8h-4z" fill="#722ed1"/>
      <circle cx="22" cy="38" r="3" fill="#722ed1"/>
      <circle cx="42" cy="38" r="3" fill="#722ed1"/>
      <circle cx="32" cy="44" r="3" fill="#722ed1"/>
      <path d="M25 38h14M28 41l4 3 4-3" stroke="#722ed1" stroke-width="2" stroke-linecap="round" fill="none"/>
    </symbol>

    <!-- Search Engine -->
    <symbol id="icon-search-engine" viewBox="0 0 64 64">
      <circle cx="32" cy="32" r="30" fill="#faad14" opacity="0.1"/>
      <circle cx="28" cy="28" r="10" fill="none" stroke="#faad14" stroke-width="2.5"/>
      <line x1="35" y1="35" x2="44" y2="44" stroke="#faad14" stroke-width="2.5" stroke-linecap="round"/>
    </symbol>

    <!-- Translation Engine -->
    <symbol id="icon-translation-engine" viewBox="0 0 64 64">
      <circle cx="32" cy="32" r="30" fill="#eb2f96" opacity="0.1"/>
      <text x="20" y="36" font-family="Arial" font-size="16" font-weight="bold" fill="#eb2f96">A</text>
      <text x="38" y="36" font-family="SimSun" font-size="16" font-weight="bold" fill="#eb2f96">文</text>
      <path d="M28 28l4 4 4-4" stroke="#eb2f96" stroke-width="2" fill="none" stroke-linecap="round"/>
    </symbol>

    <!-- OCR Engine -->
    <symbol id="icon-ocr-engine" viewBox="0 0 64 64">
      <circle cx="32" cy="32" r="30" fill="#f5222d" opacity="0.1"/>
      <rect x="18" y="20" width="28" height="24" fill="none" stroke="#f5222d" stroke-width="2" rx="2"/>
      <line x1="24" y1="28" x2="40" y2="28" stroke="#f5222d" stroke-width="2"/>
      <line x1="24" y1="34" x2="36" y2="34" stroke="#f5222d" stroke-width="2"/>
      <circle cx="26" cy="38" r="1.5" fill="#f5222d"/>
      <circle cx="30" cy="38" r="1.5" fill="#f5222d"/>
      <circle cx="34" cy="38" r="1.5" fill="#f5222d"/>
    </symbol>

    <!-- Blockchain Engine -->
    <symbol id="icon-blockchain-engine" viewBox="0 0 64 64">
      <circle cx="32" cy="32" r="30" fill="#fa8c16" opacity="0.1"/>
      <rect x="14" y="26" width="10" height="12" fill="none" stroke="#fa8c16" stroke-width="2" rx="1"/>
      <rect x="27" y="26" width="10" height="12" fill="none" stroke="#fa8c16" stroke-width="2" rx="1"/>
      <rect x="40" y="26" width="10" height="12" fill="none" stroke="#fa8c16" stroke-width="2" rx="1"/>
      <line x1="24" y1="32" x2="27" y2="32" stroke="#fa8c16" stroke-width="2"/>
      <line x1="37" y1="32" x2="40" y2="32" stroke="#fa8c16" stroke-width="2"/>
    </symbol>

    <!-- Security Engine -->
    <symbol id="icon-security-engine" viewBox="0 0 64 64">
      <circle cx="32" cy="32" r="30" fill="#52c41a" opacity="0.1"/>
      <path d="M32 18l-12 6v10c0 7.4 5.2 14.3 12 16 6.8-1.7 12-8.6 12-16V24z" fill="none" stroke="#52c41a" stroke-width="2"/>
      <path d="M26 32l4 4 8-8" stroke="#52c41a" stroke-width="2.5" stroke-linecap="round" stroke-linejoin="round" fill="none"/>
    </symbol>
  </defs>
</svg>
